<svg width="39" height="40" viewBox="0 0 39 40" fill="none" xmlns="http://www.w3.org/2000/svg">
<path fill-rule="evenodd" clip-rule="evenodd" d="M0.103937 11.5956L1.70797 18.4543C1.90942 14.7738 3.216 11.1927 5.62658 8.21781L0.103937 11.5956ZM19.0401 3.88029C15.3747 4.03166 11.7574 5.44474 8.89209 8.16698C8.74129 8.26713 8.59087 8.42115 8.49222 8.57099C8.33991 8.67152 8.24126 8.77318 8.18948 8.87485C5.37751 11.8486 4.02142 15.6801 4.02142 19.5635C4.02142 19.5635 4.02142 19.5635 4.02142 19.6132C4.02142 23.4473 5.42665 27.2788 8.24126 30.2536C8.24126 30.2536 8.24126 30.2536 8.24126 30.3033C8.3399 30.3542 8.39093 30.4543 8.49222 30.5564C9.89858 31.9679 11.5041 33.0775 13.2643 33.8336C13.364 33.8844 13.4627 33.9353 13.564 33.985C15.2734 34.7421 17.0816 35.0942 18.8908 35.1959C19.1921 35.1959 19.3935 35.1959 19.6441 35.1959C23.4629 35.1959 27.3294 33.7828 30.3454 30.908C30.3454 30.8587 30.3454 30.8587 30.3454 30.8587C30.4452 30.8079 30.5469 30.6565 30.6467 30.5564C33.6079 27.6319 35.116 23.7496 35.2173 19.8165C35.2173 19.7672 35.2173 19.7164 35.2173 19.6655C35.2679 15.7309 33.8109 11.7978 30.9479 8.77318C30.8973 8.77318 30.8973 8.77318 30.8973 8.72349C30.7975 8.62182 30.6962 8.52167 30.5949 8.42114C29.1908 7.00806 27.6321 5.99898 25.9226 5.24293C25.8746 5.1921 25.7227 5.1424 25.6214 5.09157C23.7642 4.334 21.8052 3.93113 19.7949 3.88029C19.5454 3.88029 19.2922 3.88029 19.0401 3.88029ZM11.404 0.200195L7.94003 5.84762C10.7014 3.47894 13.9174 2.11668 17.2335 1.66298L11.404 0.200195ZM30.7468 5.3446L27.6321 0.300724L21.8532 1.66298C23.4629 1.86517 25.0186 2.26767 26.5761 2.92357C26.6759 2.9744 26.7761 3.02523 26.8774 3.07493C28.2334 3.67962 29.492 4.43567 30.7468 5.3446ZM37.4801 17.5965L38.8346 11.7978L33.9628 8.77318C35.9229 11.4442 37.1267 14.4206 37.4801 17.5965ZM33.6612 30.8079L38.784 27.6319L37.4279 21.8335C36.9763 25.0599 35.7199 28.1365 33.6612 30.8079ZM21.1521 37.4644L27.4813 39.0273L30.7975 33.6314C27.9334 35.9014 24.6161 37.2129 21.1521 37.4644ZM7.58551 32.8769L11.2029 38.9272L17.5854 37.4644C15.9281 37.2622 14.2692 36.81 12.6599 36.153C12.5095 36.1033 12.4093 36.0524 12.3095 36.0016C10.6016 35.2467 8.9949 34.1868 7.58551 32.8769ZM1.70797 20.6223L0 27.481L5.82803 31.062C3.26665 28.0348 1.90942 24.3547 1.70797 20.6223Z" fill="#CBCBCB"/>
</svg>
